<?xml version="1.0" encoding="utf-8"?>
<!-- Generator: Adobe Illustrator 27.6.1, SVG Export Plug-In . SVG Version: 6.00 Build 0)  -->
<svg version="1.1" id="Layer_1" xmlns="http://www.w3.org/2000/svg" xmlns:xlink="http://www.w3.org/1999/xlink" x="0px" y="0px"
	 viewBox="0 0 676.7 1003.5" style="enable-background:new 0 0 676.7 1003.5;" xml:space="preserve">
<style type="text/css">
	.st0{fill:#FFFFFF;}
</style>
<path class="st0" d="M350.5,720.6c-8.8-9.9-17.7-19.8-26.5-29.7c-21.2-23.7-42.4-47.5-63.6-71.2c-25.6-28.7-51.2-57.4-76.9-86.1
	c-22-24.6-44-49.3-66-73.9c-10.7-11.9-21.2-24-32-35.8c-0.4-0.5-0.8-0.9-1.2-1.4c2.1,2.7,4.2,5.4,6.3,8.1c-1.2-1.6-2.2-3.3-3.1-5.1
	c1.3,3.2,2.7,6.4,4,9.6c-0.7-1.8-1.2-3.6-1.5-5.5c0.5,3.5,1,7.1,1.4,10.6c-0.2-1.9-0.2-3.6,0-5.5c-0.5,3.5-1,7.1-1.4,10.6
	c0.3-2.2,0.9-4.2,1.8-6.3c-1.3,3.2-2.7,6.4-4,9.6c0.8-1.7,1.7-3.2,2.8-4.7c-2.1,2.7-4.2,5.4-6.3,8.1c1.2-1.4,2.5-2.7,3.9-3.9
	c-2.7,2.1-5.4,4.2-8.1,6.3c1.5-1.1,3.1-2,4.9-2.8c-3.2,1.3-6.4,2.7-9.6,4c1.9-0.7,3.7-1.2,5.7-1.4c-3.5,0.5-7.1,1-10.6,1.4
	c5.5-0.4,11.1-0.1,16.6-0.1h137.3c21.6,0,40-18.3,40-40V104.3c0-14-0.3-28.1,0-42.1c0-1.1,0.1-2.1,0.2-3.2c-0.5,3.5-1,7.1-1.4,10.6
	c0.3-1.8,0.7-3.4,1.3-5.1c-1.3,3.2-2.7,6.4-4,9.6c0.9-2,1.9-3.8,3.2-5.6c-2.1,2.7-4.2,5.4-6.3,8.1c1.1-1.3,2.3-2.5,3.6-3.6
	c-2.7,2.1-5.4,4.2-8.1,6.3c1.8-1.3,3.6-2.3,5.6-3.2c-3.2,1.3-6.4,2.7-9.6,4c1.7-0.6,3.4-1,5.1-1.3c-3.5,0.5-7.1,1-10.6,1.4
	c6.7-0.6,13.7-0.2,20.4-0.2h144.6c8.2,0,16.7-0.6,24.9,0.2c-3.5-0.5-7.1-1-10.6-1.4c1.8,0.3,3.4,0.7,5.1,1.3c-3.2-1.3-6.4-2.7-9.6-4
	c2,0.9,3.8,1.9,5.6,3.2c-2.7-2.1-5.4-4.2-8.1-6.3c1.3,1.1,2.5,2.3,3.6,3.6c-2.1-2.7-4.2-5.4-6.3-8.1c1.3,1.8,2.3,3.6,3.2,5.6
	c-1.3-3.2-2.7-6.4-4-9.6c0.6,1.7,1,3.4,1.3,5.1c-0.5-3.5-1-7.1-1.4-10.6c1.1,12.1,0.2,24.7,0.2,36.9v275.7c0,14.4-0.3,28.9,0,43.3
	v0.6c0,21.6,18.3,40,40,40h133.5c6.8,0,13.7-0.4,20.5,0.1c-3.5-0.5-7.1-1-10.6-1.4c2,0.3,3.8,0.7,5.7,1.4c-3.2-1.3-6.4-2.7-9.6-4
	c1.7,0.8,3.3,1.7,4.9,2.8c-2.7-2.1-5.4-4.2-8.1-6.3c1.5,1.2,2.7,2.4,3.9,3.9c-2.1-2.7-4.2-5.4-6.3-8.1c1.1,1.5,2,3,2.8,4.7
	c-1.3-3.2-2.7-6.4-4-9.6c0.9,2,1.4,4.1,1.8,6.3c-0.5-3.5-1-7.1-1.4-10.6c0.2,1.9,0.2,3.6,0,5.5c0.5-3.5,1-7.1,1.4-10.6
	c-0.3,1.9-0.8,3.7-1.5,5.5c1.3-3.2,2.7-6.4,4-9.6c-0.8,1.9-1.8,3.5-3.1,5.1c2.1-2.7,4.2-5.4,6.3-8.1c-8.8,10.4-18.1,20.3-27.1,30.4
	c-21.3,23.8-42.5,47.6-63.8,71.5c-25.7,28.8-51.5,57.6-77.2,86.4c-22.1,24.8-44.3,49.6-66.4,74.3c-10.5,11.7-20.7,23.7-31.4,35.2
	c-1.1,1.1-2.2,2.2-3.4,3.2c2.7-2.1,5.4-4.2,8.1-6.3c-1.5,1.1-3,1.9-4.7,2.7c3.2-1.3,6.4-2.7,9.6-4c-1.7,0.6-3.3,1.1-5.1,1.4
	c3.5-0.5,7.1-1,10.6-1.4c-2.2,0.3-4.4,0.3-6.6,0c3.5,0.5,7.1,1,10.6,1.4c-1.8-0.3-3.4-0.8-5.1-1.4c3.2,1.3,6.4,2.7,9.6,4
	c-1.7-0.8-3.2-1.6-4.7-2.7c2.7,2.1,5.4,4.2,8.1,6.3C352.5,722.6,351.5,721.7,350.5,720.6c-14.5-15.2-42.2-15.7-56.6,0
	c-15,16.3-15.4,40.4,0,56.6c23.8,25,65.7,25,89.3-0.4c2.1-2.3,4.2-4.7,6.2-7c10.9-12.2,21.8-24.4,32.7-36.6
	c36.5-40.8,72.9-81.7,109.4-122.5c32.7-36.6,65.4-73.2,98.1-109.8c6.2-6.9,12.4-13.8,18.5-20.8c10.4-11.8,16.4-24.7,17.3-40.6
	c1-17.1-6.5-35.9-19.4-47.3c-12.1-10.7-26.3-16.4-42.6-16.7H452.2l40,40V62.8c-0.1-17-6.5-33.8-19-45.6C460.8,5.5,444.9,0,428,0
	H248.3c-17.1,0-33.6,5.8-45.9,18.1c-11.9,11.9-18,28.1-18.1,44.8c-0.1,8.1,0,16.1,0,24.2v328.3l40-40H74.2
	c-28.1,0.1-53.2,17.8-60.9,45.3c-4.6,16.5-2.1,36.1,8,50.1c2.6,3.6,5.1,6.8,7.9,10c2.4,2.7,4.8,5.3,7.1,8
	c27.4,30.7,54.8,61.3,82.2,92c36.7,41.1,73.5,82.3,110.2,123.4c21.4,23.9,42.4,48.2,64.1,71.8c0.3,0.4,0.6,0.7,1,1.1
	c6.6,7.4,18.6,11.7,28.3,11.7s21.5-4.4,28.3-11.7C365.8,760.5,365.4,737.3,350.5,720.6z"/>
<path class="st0" d="M622.7,923.5H123.5c-22.8,0-45.6,0.3-68.4,0c-0.7,0-1.5,0-2.2-0.1c3.5,0.5,7.1,1,10.6,1.4
	c-1.3-0.2-2.5-0.5-3.8-0.9c3.2,1.3,6.4,2.7,9.6,4c-1.2-0.5-2.2-1.1-3.3-1.9c2.7,2.1,5.4,4.2,8.1,6.3c-1-0.8-1.8-1.7-2.7-2.7
	c2.1,2.7,4.2,5.4,6.3,8.1c-0.8-1.1-1.3-2.1-1.9-3.3c1.3,3.2,2.7,6.4,4,9.6c-0.4-1.3-0.7-2.4-0.9-3.8c0.5,3.5,1,7.1,1.4,10.6
	c-0.6-12.6-0.1-25.4-0.1-38s-0.5-25.4,0.1-38c-0.5,3.5-1,7.1-1.4,10.6c0.2-1.3,0.5-2.5,0.9-3.8c-1.3,3.2-2.7,6.4-4,9.6
	c0.5-1.2,1.1-2.2,1.9-3.3c-2.1,2.7-4.2,5.4-6.3,8.1c0.8-1,1.7-1.8,2.7-2.7c-2.7,2.1-5.4,4.2-8.1,6.3c1.1-0.8,2.1-1.3,3.3-1.9
	c-3.2,1.3-6.4,2.7-9.6,4c1.3-0.4,2.4-0.7,3.8-0.9c-3.5,0.5-7.1,1-10.6,1.4c19.1-0.9,38.4-0.1,57.6-0.1h443.1c22.8,0,45.6-0.3,68.4,0
	c0.7,0,1.5,0,2.2,0.1c-3.5-0.5-7.1-1-10.6-1.4c1.3,0.2,2.5,0.5,3.8,0.9c-3.2-1.3-6.4-2.7-9.6-4c1.2,0.5,2.2,1.1,3.3,1.9
	c-2.7-2.1-5.4-4.2-8.1-6.3c1,0.8,1.8,1.7,2.7,2.7c-2.1-2.7-4.2-5.4-6.3-8.1c0.8,1.1,1.3,2.1,1.9,3.3c-1.3-3.2-2.7-6.4-4-9.6
	c0.4,1.3,0.7,2.4,0.9,3.8c-0.5-3.5-1-7.1-1.4-10.6c0.6,12.6,0.1,25.4,0.1,38s0.5,25.4-0.1,38c0.5-3.5,1-7.1,1.4-10.6
	c-0.2,1.3-0.5,2.5-0.9,3.8c1.3-3.2,2.7-6.4,4-9.6c-0.5,1.2-1.1,2.2-1.9,3.3c2.1-2.7,4.2-5.4,6.3-8.1c-0.8,1-1.7,1.8-2.7,2.7
	c2.7-2.1,5.4-4.2,8.1-6.3c-1.1,0.8-2.1,1.3-3.3,1.9c3.2-1.3,6.4-2.7,9.6-4c-1.3,0.4-2.4,0.7-3.8,0.9c3.5-0.5,7.1-1,10.6-1.4
	C623.6,923.5,623.2,923.5,622.7,923.5c-10.6,0.5-20.7,4.1-28.3,11.7c-6.9,6.9-12.2,18.3-11.7,28.3c0.5,10.3,3.9,21.1,11.7,28.3
	c7.6,7,17.6,12.2,28.3,11.7c14.8-0.7,28-5.7,38.6-16.3c10-10,15.1-23.8,15.4-37.8c0.1-3.7,0-7.3,0-11v-45.5c0-5.1,0.1-10.2,0-15.3
	c-0.2-19.1-9.3-38.1-26.4-47.8c-9.8-5.5-20.4-7.6-31.4-7.6H148.8c-31.1,0-62.3-0.3-93.4,0C25,822.5,0.8,845.7,0.1,876.3
	c-0.2,11.1,0,22.3,0,33.5c0,12.7-0.1,25.5,0,38.2c0.3,30.7,23.7,54.8,54.6,55.3c29.6,0.5,59.2,0,88.7,0h479.2c20.9,0,41-18.4,40-40
	C661.7,941.9,645.1,923.5,622.7,923.5L622.7,923.5z"/>
</svg>
