<?xml version="1.0" encoding="utf-8"?>
<!-- Generator: Adobe Illustrator 27.6.1, SVG Export Plug-In . SVG Version: 6.00 Build 0)  -->
<svg version="1.1" id="Layer_1" xmlns="http://www.w3.org/2000/svg" xmlns:xlink="http://www.w3.org/1999/xlink" x="0px" y="0px"
	 viewBox="0 0 24 30" style="enable-background:new 0 0 24 30;" xml:space="preserve">
<style type="text/css">
	.st0{fill:#FFFFFF;}
</style>
<g>
	<path class="st0" d="M17.9,6.8c-1.5-1.6-3.7-2.5-5.9-2.5c-4.4,0-7.9,3.5-7.9,7.9c0,3,2.4,6.7,7,11.1c0.1,0.1,0.2,0.2,0.3,0.2
		c0.2,0.3,0.7,0.4,1.1,0.2c0.1,0,0.1-0.1,0.2-0.2c0.1-0.1,0.1-0.1,0.3-0.3c4.5-4.3,6.8-8,7-11C20,10.2,19.3,8.2,17.9,6.8z
		 M18.4,12.1c-0.1,1.7-1.3,4.9-6.4,9.8c-5.3-5-6.4-8.1-6.4-9.8c0-3.5,2.9-6.4,6.4-6.4c1.8,0,3.5,0.7,4.8,2.1
		C17.9,9,18.5,10.5,18.4,12.1z"/>
	<path class="st0" d="M6.9,24.2c-0.4,0-0.8,0.3-0.8,0.8s0.3,0.8,0.8,0.8h10c0.4,0,0.8-0.3,0.8-0.8s-0.3-0.8-0.8-0.8H6.9z"/>
	<path class="st0" d="M11.9,8.2c-2.1,0-3.8,1.7-3.8,3.8s1.7,3.8,3.8,3.8s3.8-1.7,3.8-3.8C15.6,9.9,13.9,8.3,11.9,8.2z M11.9,14.2
		c-1.2,0-2.2-1-2.2-2.2s1-2.2,2.2-2.2s2.2,1,2.2,2.2C14.1,13.2,13.1,14.2,11.9,14.2z"/>
</g>
</svg>
