<?xml version="1.0" encoding="utf-8"?>
<!-- Generator: Adobe Illustrator 27.6.1, SVG Export Plug-In . SVG Version: 6.00 Build 0)  -->
<svg version="1.1" id="Layer_1" xmlns="http://www.w3.org/2000/svg" xmlns:xlink="http://www.w3.org/1999/xlink" x="0px" y="0px"
	 viewBox="0 0 100 125" style="enable-background:new 0 0 100 125;" xml:space="preserve">
<style type="text/css">
	.st0{fill:#FFFFFF;}
</style>
<g>
	<path class="st0" d="M0,112.5h47.5V65H0V112.5z M7,72.1h33.4v33.4H7V72.1z M52.5,105.5H100v7H52.5V105.5z M0,60h47.5V12.5H0V60z
		 M7,19.5h33.4v33.4H7V19.5z M52.5,12.5V60H100V12.5H52.5z M93,52.9H59.6V19.5H93L93,52.9L93,52.9z M79.9,65v28.3l9.2-8l4.5,5.2
		l-17.2,14.9L58.9,90.6l4.5-5.3l9.6,8.1V65H79.9z"/>
</g>
</svg>
