<?xml version="1.0" encoding="utf-8"?>
<!-- Generator: Adobe Illustrator 27.6.1, SVG Export Plug-In . SVG Version: 6.00 Build 0)  -->
<svg version="1.1" id="Layer_1" xmlns="http://www.w3.org/2000/svg" xmlns:xlink="http://www.w3.org/1999/xlink" x="0px" y="0px"
	 viewBox="0 0 95 118.8" style="enable-background:new 0 0 95 118.8;" xml:space="preserve">
<style type="text/css">
	.st0{fill:#24438C;}
</style>
<path class="st0" d="M30.5,31.2c1.9,0,3.4-1.5,3.4-3.4v-7.6c0-1.9-1.5-3.4-3.4-3.4s-3.4,1.5-3.4,3.4v7.6
	C27.1,29.8,28.6,31.2,30.5,31.2z"/>
<path class="st0" d="M64.5,31.2c1.9,0,3.4-1.5,3.4-3.4v-7.6c0-1.9-1.5-3.4-3.4-3.4s-3.4,1.5-3.4,3.4v7.6
	C61.1,29.8,62.6,31.2,64.5,31.2z"/>
<rect x="42.9" y="43.8" class="st0" width="8.5" height="9.1"/>
<rect x="53.5" y="43.8" class="st0" width="8.5" height="9.1"/>
<rect x="64.1" y="43.8" class="st0" width="8.5" height="9.1"/>
<rect x="32.2" y="55.1" class="st0" width="8.5" height="9.1"/>
<rect x="21.6" y="55.1" class="st0" width="8.5" height="9.1"/>
<rect x="53.5" y="55.1" class="st0" width="8.5" height="9.1"/>
<rect x="42.9" y="55.1" class="st0" width="8.5" height="9.1"/>
<rect x="42.9" y="66.4" class="st0" width="8.5" height="9.1"/>
<rect x="32.2" y="66.4" class="st0" width="8.5" height="9.1"/>
<rect x="21.6" y="66.4" class="st0" width="8.5" height="9.1"/>
<rect x="64.1" y="55.1" class="st0" width="8.5" height="9.1"/>
<path class="st0" d="M69.6,23.1v4.7c0,2.8-2.3,5.1-5.1,5.1s-5.1-2.3-5.1-5.1v-4.7H35.6v4.7c0,2.8-2.3,5.1-5.1,5.1s-5.1-2.3-5.1-5.1
	v-4.7H14.7v59.7h65.7V23.1H69.6z M76.3,79.2H18.7V39.4h57.7L76.3,79.2L76.3,79.2z"/>
</svg>
