<?xml version="1.0" encoding="utf-8"?>
<!-- Generator: Adobe Illustrator 27.6.1, SVG Export Plug-In . SVG Version: 6.00 Build 0)  -->
<svg version="1.1" id="Layer_1" xmlns="http://www.w3.org/2000/svg" xmlns:xlink="http://www.w3.org/1999/xlink" x="0px" y="0px"
	 viewBox="0 0 64 80" style="enable-background:new 0 0 64 80;" xml:space="preserve">
<style type="text/css">
	.st0{fill:#005E9B;}
	.st1{fill:#24438C;}
</style>
<path class="st0" d="M42.1,17.8h12.4L41.7,4.9v12.4C41.7,17.6,41.9,17.8,42.1,17.8z"/>
<path class="st1" d="M42.1,19.9c-1.4,0-2.5-1.1-2.5-2.5l0,0v-14H8.5C8.2,3.4,8,3.6,8,3.9l0,0v63c0,0.3,0.2,0.5,0.5,0.5l0,0h47.1
	c0.3,0,0.5-0.2,0.5-0.5l0,0v-47H42.1z M48.9,53.1H16c-0.6,0-1-0.5-1-1c0-0.6,0.5-1,1-1h32.9c0.6,0,1,0.5,1,1
	C49.9,52.7,49.5,53.1,48.9,53.1z M48.9,45.8H16c-0.6,0-1-0.5-1-1c0-0.6,0.5-1,1-1h32.9c0.6,0,1,0.5,1,1S49.5,45.8,48.9,45.8z
	 M48.9,38.3H16c-0.6,0-1-0.5-1-1c0-0.6,0.5-1,1-1h32.9c0.6,0,1,0.5,1,1S49.5,38.3,48.9,38.3z M48.9,30.8H16c-0.6,0-1-0.5-1-1
	c0-0.6,0.5-1,1-1h32.9c0.6,0,1,0.5,1,1C49.9,30.4,49.5,30.8,48.9,30.8z"/>
</svg>
