<?xml version="1.0" encoding="utf-8"?>
<!-- Generator: Adobe Illustrator 27.6.1, SVG Export Plug-In . SVG Version: 6.00 Build 0)  -->
<svg version="1.1" id="Layer_1" xmlns="http://www.w3.org/2000/svg" xmlns:xlink="http://www.w3.org/1999/xlink" x="0px" y="0px"
	 viewBox="0 0 100 125" style="enable-background:new 0 0 100 125;" xml:space="preserve">
<style type="text/css">
	.st0{fill:#FFFFFF;}
</style>
<g id="Layer_2_00000026862445483611017910000003823286591350101920_">
</g>
<g id="Layer_1_00000123417682083011823040000017424356792741423239_">
	<g>
		<path class="st0" d="M74.5,81.8l-15.3-7.9c-2.2-1.1-4.8-0.5-6.3,1.4l-5.6,7.2c-5.5-2.9-9.6-5.7-14.4-10.6
			c-5.1-5.1-7.9-9.4-10.7-14.7l7.1-5.5c1.9-1.5,2.5-4.1,1.4-6.3l-7.9-15.2c-1.4-2.7-4.8-3.5-7.3-1.9l-9.7,6.5
			c-2.3,1.5-3.5,4.1-3.4,6.8c0.2,2.8,0.5,6.3,1.2,8.7c2.8,10.9,9.6,22.1,19.2,31.6c9.5,9.5,20.8,16.3,31.6,19.2
			c2.4,0.6,5.9,1,8.7,1.2c2.7,0.2,5.4-1.1,6.9-3.5l6.3-9.8C78,86.5,77.1,83.1,74.5,81.8z"/>
		<path class="st0" d="M93.5,22.7H45.3c-2.2,0-4,1.8-4,4v2.6l28.1,11.8l28.1-11.8v-2.6C97.5,24.5,95.7,22.7,93.5,22.7z"/>
		<path class="st0" d="M69.4,47.6c-0.9,0-1.7-0.2-2.5-0.5L41.3,36.4v23.1c0,2.2,1.8,4,4,4h48.3c2.2,0,4-1.8,4-4V36.4L71.9,47.1
			C71.1,47.4,70.3,47.6,69.4,47.6z"/>
	</g>
</g>
</svg>
