<?xml version="1.0" encoding="UTF-8" standalone="no"?>
<svg
   viewBox="0 0 64 80"
   x="0px"
   y="0px"
   version="1.1"
   id="svg3"
   sodipodi:docname="email.svg"
   inkscape:version="1.3 (0e150ed6c4, 2023-07-21)"
   xmlns:inkscape="http://www.inkscape.org/namespaces/inkscape"
   xmlns:sodipodi="http://sodipodi.sourceforge.net/DTD/sodipodi-0.dtd"
   xmlns="http://www.w3.org/2000/svg"
   xmlns:svg="http://www.w3.org/2000/svg">
  <defs
     id="defs3" />
  <sodipodi:namedview
     id="namedview3"
     pagecolor="#505050"
     bordercolor="#eeeeee"
     borderopacity="1"
     inkscape:showpageshadow="0"
     inkscape:pageopacity="0"
     inkscape:pagecheckerboard="0"
     inkscape:deskcolor="#505050"
     inkscape:zoom="9.8375"
     inkscape:cx="32.02033"
     inkscape:cy="40"
     inkscape:window-width="1920"
     inkscape:window-height="1001"
     inkscape:window-x="-9"
     inkscape:window-y="-9"
     inkscape:window-maximized="1"
     inkscape:current-layer="svg3" />
  <path
     d="m32,41.39001c-1.26001,0-2.51001-.41003-3.56-1.24011L4,20.72998v28.04004c0,.55005.45001,1,1,1h54c.54999,0,1-.44995,1-1v-28.04004l-24.44,19.41992c-1.04999.83008-2.29999,1.24011-3.56,1.24011Z"
     id="path1"
     style="fill:#f9f9f9" />
  <path
     d="m59,14.22998H5c-.54999,0-1,.44995-1,1v2.94995l25.67999,20.40002c1.37,1.07996,3.27002,1.07996,4.64001,0l25.67999-20.41003v-2.93994c0-.55005-.45001-1-1-1Z"
     id="path2" />
  <path
     style="fill:#f9f9f9;stroke-width:0.101652"
     d="M 31.506456,39.27894 C 31.223825,39.243121 30.780103,39.119824 30.520406,39.004947 30.246271,38.883685 24.588785,34.458785 17.031738,28.455031 L 4.0152478,18.113982 v -1.468566 c 0,-1.614826 0.1068693,-2.037141 0.5687669,-2.247596 0.1879324,-0.08563 7.3419693,-0.115736 27.4997443,-0.115736 h 27.24573 l 0.297136,0.297136 0.297136,0.297136 -0.0062,1.659662 -0.0062,1.659662 -12.863085,10.21601 c -7.074696,5.618806 -13.102303,10.3447 -13.394682,10.501988 -0.605153,0.325547 -1.397297,0.4603 -2.147194,0.365262 z"
     id="path3" />
</svg>
