<?xml version="1.0" encoding="utf-8"?>
<!-- Generator: Adobe Illustrator 27.6.1, SVG Export Plug-In . SVG Version: 6.00 Build 0)  -->
<svg version="1.1"
	 id="svg3" xmlns:svg="http://www.w3.org/2000/svg" xmlns:inkscape="http://www.inkscape.org/namespaces/inkscape" xmlns:sodipodi="http://sodipodi.sourceforge.net/DTD/sodipodi-0.dtd"
	 xmlns="http://www.w3.org/2000/svg" xmlns:xlink="http://www.w3.org/1999/xlink" x="0px" y="0px" viewBox="0 0 64 80"
	 style="enable-background:new 0 0 64 80;" xml:space="preserve">
<style type="text/css">
	.st0{fill:#FFFFFF;}
</style>
<sodipodi:namedview  bordercolor="#eeeeee" borderopacity="1" id="namedview3" inkscape:current-layer="svg3" inkscape:cx="32.02033" inkscape:cy="40" inkscape:deskcolor="#505050" inkscape:pagecheckerboard="0" inkscape:pageopacity="0" inkscape:showpageshadow="0" inkscape:window-height="1001" inkscape:window-maximized="1" inkscape:window-width="1920" inkscape:window-x="-9" inkscape:window-y="-9" inkscape:zoom="9.8375" pagecolor="#505050">
	</sodipodi:namedview>
<path id="path1" class="st0" d="M32,41.4c-1.3,0-2.5-0.4-3.6-1.2L4,20.7v28c0,0.6,0.5,1,1,1h54c0.5,0,1-0.4,1-1v-28L35.6,40.1
	C34.5,41,33.3,41.4,32,41.4z"/>
<path id="path2" class="st0" d="M59,14.2H5c-0.5,0-1,0.4-1,1v2.9l25.7,20.4c1.4,1.1,3.3,1.1,4.6,0L60,18.2v-2.9
	C60,14.7,59.5,14.2,59,14.2z"/>
<path id="path3" class="st0" d="M31.5,39.3c-0.3,0-0.7-0.2-1-0.3S24.6,34.5,17,28.5L4,18.1v-1.5c0-1.6,0.1-2,0.6-2.2
	c0.2-0.1,7.3-0.1,27.5-0.1h27.2l0.3,0.3l0.3,0.3v1.7v1.7L47,28.4C40,34,33.9,38.8,33.7,38.9C33,39.2,32.3,39.4,31.5,39.3L31.5,39.3z
	"/>
</svg>
