<?xml version="1.0" encoding="utf-8"?>
<!-- Generator: Adobe Illustrator 27.6.1, SVG Export Plug-In . SVG Version: 6.00 Build 0)  -->
<svg version="1.1" id="Layer_1" xmlns="http://www.w3.org/2000/svg" xmlns:xlink="http://www.w3.org/1999/xlink" x="0px" y="0px"
	 viewBox="0 0 800 800" style="enable-background:new 0 0 800 800;" xml:space="preserve">
<style type="text/css">
	.st0{fill:#4E6300;stroke:#000000;stroke-width:2.5806;stroke-miterlimit:10.3226;}
</style>
<g id="SVGRepo_bgCarrier">
</g>
<g id="SVGRepo_tracerCarrier">
</g>
<g id="SVGRepo_iconCarrier">
	<g id="XMLID_834_">
		<path id="XMLID_835_" class="st0" d="M210.8,426.1h87.7v361c0,7.1,5.8,12.9,12.9,12.9h148.7c7.1,0,12.9-5.8,12.9-12.9V427.8h100.8
			c6.6,0,12.1-4.9,12.8-11.4L602,283.4c0.4-3.7-0.7-7.3-3.2-10.1c-2.4-2.7-6-4.3-9.6-4.3H473v-83.3c0-25.1,13.5-37.9,40.2-37.9
			c3.8,0,75.9,0,75.9,0c7.1,0,12.9-5.8,12.9-12.9V13c0-7.1-5.8-12.9-12.9-12.9H484.5c-0.7,0-2.4-0.1-4.8-0.1
			c-18.2,0-81.3,3.6-131.1,49.4c-55.2,50.8-47.6,111.7-45.7,122.2v97.4h-92.1c-7.1,0-12.9,5.8-12.9,12.9v131.2
			C197.9,420.3,203.7,426.1,210.8,426.1z"/>
	</g>
</g>
</svg>
