<?xml version="1.0" encoding="utf-8"?>
<!-- Generator: Adobe Illustrator 27.6.1, SVG Export Plug-In . SVG Version: 6.00 Build 0)  -->
<svg version="1.1" id="Layer_1" xmlns="http://www.w3.org/2000/svg" xmlns:xlink="http://www.w3.org/1999/xlink" x="0px" y="0px"
	 viewBox="0 0 32 40" style="enable-background:new 0 0 32 40;" xml:space="preserve">
<style type="text/css">
	.st0{fill:#24438C;}
</style>
<g>
	<path class="st0" d="M27,6.1H5c-1.7,0-3,1.3-3,3v16c0,1.7,1.3,3,3,3h22c1.7,0,3-1.3,3-3v-16C30,7.5,28.6,6.1,27,6.1z M27,8.1
		c0.2,0,0.3,0,0.5,0.1h-0.1l-10.7,8.7c-0.4,0.3-1,0.3-1.4,0L4.6,8.3H4.5C4.6,8.2,4.8,8.1,5,8.1H27z M27,26.1H5c-0.6,0-1-0.4-1-1
		V10.3l10,8.1c1.2,0.9,2.8,0.9,3.9,0l10-8.1v14.8C27.9,25.6,27.5,26.1,27,26.1z"/>
</g>
</svg>
