<?xml version="1.0" encoding="utf-8"?>
<!-- Generator: Adobe Illustrator 27.6.1, SVG Export Plug-In . SVG Version: 6.00 Build 0)  -->
<svg version="1.1" id="Layer_1" xmlns="http://www.w3.org/2000/svg" xmlns:xlink="http://www.w3.org/1999/xlink" x="0px" y="0px"
	 viewBox="0 0 100 125" style="enable-background:new 0 0 100 125;" xml:space="preserve">
<style type="text/css">
	.st0{fill:#3F5589;}
</style>
<g id="Layer_2_00000006694650154065363400000006746025182517117592_">
</g>
<g id="Layer_1_00000180350484120609915060000011172794532475307431_">
	<g>
		<circle class="st0" cx="85.6" cy="61.4" r="12.1"/>
		<path class="st0" d="M56.7,50.9c-1.2-1.2-3.1-1.2-4.3,0s-1.2,3.1,0,4.3l3.2,3.2H37.3c-1.7,0-3,1.4-3,3s1.4,3,3,3h18.3l-3.2,3.2
			c-1.2,1.2-1.2,3.1,0,4.3c0.6,0.6,1.4,0.9,2.1,0.9c0.8,0,1.6-0.3,2.2-0.9l8.4-8.4c1.2-1.2,1.2-3.1,0-4.3L56.7,50.9z"/>
		<circle class="st0" cx="14.7" cy="61.4" r="12.1"/>
	</g>
</g>
</svg>
