<?xml version="1.0" encoding="utf-8"?>
<!-- Generator: Adobe Illustrator 27.6.1, SVG Export Plug-In . SVG Version: 6.00 Build 0)  -->
<svg version="1.1" id="Layer_1" xmlns="http://www.w3.org/2000/svg" xmlns:xlink="http://www.w3.org/1999/xlink" x="0px" y="0px"
	 viewBox="0 0 128 160" style="enable-background:new 0 0 128 160;" xml:space="preserve">
<style type="text/css">
	.st0{fill:#24438C;}
</style>
<path class="st0" d="M89.8,48.8c-11.5,8.7-21.7,19.1-30.1,30.8c-1.5-2-3-3.8-4.6-5.7c-2.6-3-5.3-5.8-8.2-8.4
	c-1.4-1.2-3.4-1.1-4.7,0.2c-1.2,1.4-1.1,3.4,0.2,4.7l0,0c2.7,2.4,5.3,5.1,7.7,7.8c2.5,2.9,4.8,5.8,7,8.9c1,1.5,3.1,1.9,4.6,0.8
	c0.1-0.1,0.9-0.9,0.9-0.9c4.1-6.3,8.8-12.2,14-17.7c5.2-5.6,11-10.7,17.1-15.3c1.5-1.1,1.8-3.2,0.7-4.6C93.3,48,91.2,47.7,89.8,48.8
	z"/>
<circle class="st0" cx="105.7" cy="105.9" r="8.8"/>
<circle class="st0" cx="115.2" cy="82" r="8.8"/>
<circle class="st0" cx="112.5" cy="56.4" r="7.9"/>
<circle class="st0" cx="98.3" cy="35.1" r="6.1"/>
<circle class="st0" cx="75.7" cy="22.8" r="3.9"/>
<path class="st0" d="M92.1,116.8L66,113.5c-0.9-0.1-1.8,0.5-1.9,1.4c0,0.3,0,0.6,0.1,0.9l2.8,6.7c-0.2,0-0.4,0-0.7,0
	c-28.3,0-51.3-23-51.2-51.4c0-21.5,13.5-40.7,33.6-48.1c0.6-0.2,1-0.7,1.1-1.3c0.2-0.8-0.4-1.7-1.3-1.8c-0.2,0-0.4,0-0.6,0
	C22,26.3,3.9,49.6,4,76.2c0.1,8,1.8,15.9,4.9,23.2c6.6,14.9,19,26.4,34.4,31.6c7.6,2.6,15.6,3.6,23.5,3c1.6-0.1,3.2-0.3,4.8-0.6
	l2.8,6.7c0.4,0.9,1.3,1.3,2.2,0.9c0.3-0.1,0.5-0.3,0.7-0.5l16-21c0.6-0.7,0.4-1.8-0.3-2.4C92.7,117,92.4,116.9,92.1,116.8z"/>
</svg>
